<svg xmlns="http://www.w3.org/2000/svg" viewBox="0 0 68.37 68.37"><defs><style>.cls-1{fill:#fff;opacity:0.3;}.cls-2{fill:none;stroke:#414140;stroke-linecap:round;stroke-linejoin:round;stroke-width:2.05px;}</style></defs><title>que_es_icon_1-</title><g id="Layer_2" data-name="Layer 2"><g id="Layer_1-2" data-name="Layer 1"><circle class="cls-1" cx="34.19" cy="34.19" r="34.19"/><path class="cls-2" d="M21.1,22.62a104.25,104.25,0,0,1,26.11,0c2.9-2.85,2.22-5.31,2.22-5.31a3,3,0,0,0-2.66-1.93c-2.06-.33-16.23-1.51-25.26,0a2.78,2.78,0,0,0-2.42,1.86S18,19.76,21.1,22.62Z"/><path class="cls-2" d="M21.59,22.58c-.1,3.39,0,16.55,7.06,22.55a12.86,12.86,0,0,1,2.26,2.64c.62.9,1.23,2.51,1.4,5.8.25,4.86.41,5.79.41,5.79a1.39,1.39,0,0,0,1.38,1.26c1.14,0,1.33-1.25,1.33-1.25a45.08,45.08,0,0,0,.47-5.79c.13-2.81.55-4.67,1.54-5.8.82-.93,1.82-1.79,2.55-2.61,6.55-7.36,6.84-19.35,6.79-22.53"/></g></g></svg>