<?xml version="1.0" encoding="utf-8"?>
<!-- Generator: Adobe Illustrator 15.1.0, SVG Export Plug-In . SVG Version: 6.00 Build 0)  -->
<!DOCTYPE svg PUBLIC "-//W3C//DTD SVG 1.1//EN" "http://www.w3.org/Graphics/SVG/1.1/DTD/svg11.dtd">
<svg version="1.1" id="Layer_1" xmlns="http://www.w3.org/2000/svg" xmlns:xlink="http://www.w3.org/1999/xlink" x="0px" y="0px"
	 width="256px" height="256px" viewBox="0 0 256 256" enable-background="new 0 0 256 256" xml:space="preserve">
<g transform="translate(0.000000,256.000000) scale(0.100000,-0.100000)">
	<path fill="#F05552" d="M1720,2120c-150.996-33.999-272.998-88.999-395.996-181.001l-41.006-31.001L1207.002,1960
		c-153.003,102.002-334.004,170-455,170C702.998,2130,625,2116.001,515,2087.998C423.999,2065,327.002,1972.002,265,1850
		c-86.001-168.999-78.999-365,20-560c127.002-250.996,447.002-559.004,832.002-799.004c71.997-43.994,85.996-48.994,105.996-40
		c19.004,9.004,30,7.002,58.003-10C1300,429.004,1322.002,420,1330.996,420c23.008,0,229.004,132.998,363.008,234.004
		C2039.004,915,2252.998,1175,2330.996,1430c32.002,102.998,32.002,247.002,0,340c-50,143.999-165.996,285-277.998,337.998
		C1977.002,2142.998,1845.996,2147.998,1720,2120z M2054.004,2081.001c110-53.999,216.992-193.999,260-340
		c20-68.999,20.996-208.003,0.996-286.001c-20.996-82.002-84.004-210.996-147.002-302.998c-140-201.006-455-477.998-760-666.006
		c-75.996-46.992-77.002-46.992-107.002-30.996c-16.997,7.998-30.996,17.002-30.996,20c0,2.002,32.998,25,72.998,50.996
		c251.006,162.002,535,413.008,672.998,597.002c211.006,279.004,246.006,545,102.002,770
		c-68.994,108.003-130.996,163.003-227.002,204.004L1835,2121.001l77.002-3.999
		C1974.004,2113.999,2002.998,2106.001,2054.004,2081.001z M851.001,2096.001c36.997-8.003,101.001-28.999,142.998-46.001
		c76.001-32.002,258.003-140,263.003-156.001c0.996-5-11.001-18.999-28.003-31.997L1200,1838.999l-42.002,33.999
		c-110.996,91.001-291.997,185-415,217.002c-23.999,6.001-42.998,12.998-42.998,15C700,2115,787.002,2108.999,851.001,2096.001z"/>
</g>
</svg>
